<svg width="272" height="120" viewBox="0 0 272 120" fill="none" xmlns="http://www.w3.org/2000/svg">
<g filter="url(#filter0_d_302815_4228)">
<rect x="4" width="264" height="112" rx="4" fill="#F4F4FD"/>
<rect x="4.5" y="0.5" width="263" height="111" rx="3.5" stroke="#8E8F99"/>
</g>
<rect x="104.5" y="24.5" width="63" height="63" fill="white"/>
<rect x="104.5" y="24.5" width="63" height="63" stroke="black"/>
<path d="M165.546 68.1952L148.66 51.1851L150.534 41.9541C151.018 42.1429 151.532 42.2416 152.051 42.2453H152.064C154.448 42.2735 156.404 40.3633 156.432 37.9788C156.461 35.5943 154.55 33.6384 152.166 33.6101C149.781 33.582 147.825 35.4921 147.797 37.8767C147.791 38.3869 147.875 38.8941 148.047 39.3749L138.127 40.5856L121.945 24.32C121.747 24.1175 121.476 24.0023 121.192 24C120.912 24.0015 120.644 24.1129 120.445 24.3104L117.42 27.3184C117.004 27.7349 117.004 28.4101 117.42 28.8267L119.048 30.4779C112.742 42.0737 114.79 56.4335 124.087 65.8037C124.172 65.8853 124.271 65.9513 124.379 65.9989C124.312 66.3599 124.277 66.7261 124.275 67.0933V79.4667H111.475C108.531 79.4701 106.145 81.856 106.141 84.8V86.9333C106.141 87.5224 106.619 88 107.208 88H156.275C156.864 88 157.341 87.5224 157.341 86.9333V84.8C157.338 81.856 154.952 79.4701 152.008 79.4667H139.208V73.9829C141.213 74.4035 143.256 74.6179 145.305 74.6229C150.221 74.6176 155.059 73.392 159.385 71.056L161.021 72.7019C161.22 72.9044 161.491 73.0196 161.775 73.0219C162.055 73.0204 162.323 72.9089 162.521 72.7115L165.546 69.7035C165.963 69.2869 165.963 68.6117 165.546 68.1952ZM150.56 36.4661C151.395 35.6352 152.746 35.6389 153.577 36.4743C154.407 37.3096 154.404 38.6604 153.568 39.4912C153.169 39.8889 152.627 40.1121 152.063 40.112H152.057C150.879 40.1059 149.929 39.1459 149.935 37.9676C149.938 37.4036 150.164 36.8639 150.564 36.4661H150.56ZM148.049 43.4752L146.852 49.3664L144.501 47.0016L148.049 43.4752ZM146.837 41.6715L142.997 45.4891L140.026 42.5024L146.837 41.6715ZM152.008 81.6C153.775 81.6 155.208 83.0327 155.208 84.8V85.8667H108.275V84.8C108.275 83.0327 109.707 81.6 111.475 81.6H152.008ZM137.075 77.3333V79.4667H126.408V77.3333H137.075ZM126.408 75.2V67.0933C126.408 64.5056 128.801 62.4 131.741 62.4C134.682 62.4 137.075 64.5056 137.075 67.0933V75.2H126.408ZM139.208 71.808V67.0933C139.208 63.3291 135.859 60.2667 131.741 60.2667C129.079 60.2259 126.59 61.5809 125.179 63.8389C117.064 55.2913 115.236 42.5485 120.622 32.0647L157.826 69.4816C152.081 72.404 145.495 73.2268 139.208 71.808ZM161.786 70.4405L160.283 68.9291L121.181 29.5915L119.672 28.0789L121.181 26.5749L137.051 42.5344C137.059 42.5344 137.063 42.5483 137.071 42.5536L163.3 68.9365L161.786 70.4405Z" fill="#2E2F42"/>
<path d="M165.546 68.1952L148.66 51.1851L150.534 41.9541C151.018 42.1429 151.532 42.2416 152.051 42.2453H152.064C154.448 42.2735 156.404 40.3633 156.432 37.9788C156.461 35.5943 154.55 33.6384 152.166 33.6101C149.781 33.582 147.825 35.4921 147.797 37.8767C147.791 38.3869 147.875 38.8941 148.047 39.3749L138.127 40.5856L121.945 24.32C121.747 24.1175 121.476 24.0023 121.192 24C120.912 24.0015 120.644 24.1129 120.445 24.3104L117.42 27.3184C117.004 27.7349 117.004 28.4101 117.42 28.8267L119.048 30.4779C112.742 42.0737 114.79 56.4335 124.087 65.8037C124.172 65.8853 124.271 65.9513 124.379 65.9989C124.312 66.3599 124.277 66.7261 124.275 67.0933V79.4667H111.475C108.531 79.4701 106.145 81.856 106.141 84.8V86.9333C106.141 87.5224 106.619 88 107.208 88H156.275C156.864 88 157.341 87.5224 157.341 86.9333V84.8C157.338 81.856 154.952 79.4701 152.008 79.4667H139.208V73.9829C141.213 74.4035 143.256 74.6179 145.305 74.6229C150.221 74.6176 155.059 73.392 159.385 71.056L161.021 72.7019C161.22 72.9044 161.491 73.0196 161.775 73.0219C162.055 73.0204 162.323 72.9089 162.521 72.7115L165.546 69.7035C165.963 69.2869 165.963 68.6117 165.546 68.1952ZM150.56 36.4661C151.395 35.6352 152.746 35.6389 153.577 36.4743C154.407 37.3096 154.404 38.6604 153.568 39.4912C153.169 39.8889 152.627 40.1121 152.063 40.112H152.057C150.879 40.1059 149.929 39.1459 149.935 37.9676C149.938 37.4036 150.164 36.8639 150.564 36.4661H150.56ZM148.049 43.4752L146.852 49.3664L144.501 47.0016L148.049 43.4752ZM146.837 41.6715L142.997 45.4891L140.026 42.5024L146.837 41.6715ZM152.008 81.6C153.775 81.6 155.208 83.0327 155.208 84.8V85.8667H108.275V84.8C108.275 83.0327 109.707 81.6 111.475 81.6H152.008ZM137.075 77.3333V79.4667H126.408V77.3333H137.075ZM126.408 75.2V67.0933C126.408 64.5056 128.801 62.4 131.741 62.4C134.682 62.4 137.075 64.5056 137.075 67.0933V75.2H126.408ZM139.208 71.808V67.0933C139.208 63.3291 135.859 60.2667 131.741 60.2667C129.079 60.2259 126.59 61.5809 125.179 63.8389C117.064 55.2913 115.236 42.5485 120.622 32.0647L157.826 69.4816C152.081 72.404 145.495 73.2268 139.208 71.808ZM161.786 70.4405L160.283 68.9291L121.181 29.5915L119.672 28.0789L121.181 26.5749L137.051 42.5344C137.059 42.5344 137.063 42.5483 137.071 42.5536L163.3 68.9365L161.786 70.4405Z" fill="black" fill-opacity="0.2"/>
<path d="M165.546 68.1952L148.66 51.1851L150.534 41.9541C151.018 42.1429 151.532 42.2416 152.051 42.2453H152.064C154.448 42.2735 156.404 40.3633 156.432 37.9788C156.461 35.5943 154.55 33.6384 152.166 33.6101C149.781 33.582 147.825 35.4921 147.797 37.8767C147.791 38.3869 147.875 38.8941 148.047 39.3749L138.127 40.5856L121.945 24.32C121.747 24.1175 121.476 24.0023 121.192 24C120.912 24.0015 120.644 24.1129 120.445 24.3104L117.42 27.3184C117.004 27.7349 117.004 28.4101 117.42 28.8267L119.048 30.4779C112.742 42.0737 114.79 56.4335 124.087 65.8037C124.172 65.8853 124.271 65.9513 124.379 65.9989C124.312 66.3599 124.277 66.7261 124.275 67.0933V79.4667H111.475C108.531 79.4701 106.145 81.856 106.141 84.8V86.9333C106.141 87.5224 106.619 88 107.208 88H156.275C156.864 88 157.341 87.5224 157.341 86.9333V84.8C157.338 81.856 154.952 79.4701 152.008 79.4667H139.208V73.9829C141.213 74.4035 143.256 74.6179 145.305 74.6229C150.221 74.6176 155.059 73.392 159.385 71.056L161.021 72.7019C161.22 72.9044 161.491 73.0196 161.775 73.0219C162.055 73.0204 162.323 72.9089 162.521 72.7115L165.546 69.7035C165.963 69.2869 165.963 68.6117 165.546 68.1952ZM150.56 36.4661C151.395 35.6352 152.746 35.6389 153.577 36.4743C154.407 37.3096 154.404 38.6604 153.568 39.4912C153.169 39.8889 152.627 40.1121 152.063 40.112H152.057C150.879 40.1059 149.929 39.1459 149.935 37.9676C149.938 37.4036 150.164 36.8639 150.564 36.4661H150.56ZM148.049 43.4752L146.852 49.3664L144.501 47.0016L148.049 43.4752ZM146.837 41.6715L142.997 45.4891L140.026 42.5024L146.837 41.6715ZM152.008 81.6C153.775 81.6 155.208 83.0327 155.208 84.8V85.8667H108.275V84.8C108.275 83.0327 109.707 81.6 111.475 81.6H152.008ZM137.075 77.3333V79.4667H126.408V77.3333H137.075ZM126.408 75.2V67.0933C126.408 64.5056 128.801 62.4 131.741 62.4C134.682 62.4 137.075 64.5056 137.075 67.0933V75.2H126.408ZM139.208 71.808V67.0933C139.208 63.3291 135.859 60.2667 131.741 60.2667C129.079 60.2259 126.59 61.5809 125.179 63.8389C117.064 55.2913 115.236 42.5485 120.622 32.0647L157.826 69.4816C152.081 72.404 145.495 73.2268 139.208 71.808ZM161.786 70.4405L160.283 68.9291L121.181 29.5915L119.672 28.0789L121.181 26.5749L137.051 42.5344C137.059 42.5344 137.063 42.5483 137.071 42.5536L163.3 68.9365L161.786 70.4405Z" fill="black" fill-opacity="0.2"/>
<path d="M131.751 64.5333H131.741C129.974 64.5306 128.539 65.9612 128.537 67.7285C128.534 69.4958 129.965 70.9306 131.732 70.9333H131.741C133.509 70.936 134.944 69.5054 134.946 67.7381C134.949 65.9708 133.518 64.536 131.751 64.5333ZM132.498 68.4896C132.297 68.6893 132.025 68.801 131.741 68.8C131.152 68.7969 130.677 68.3169 130.68 67.7278C130.682 67.4458 130.795 67.176 130.995 66.977C131.193 66.7796 131.461 66.6681 131.741 66.6666C132.331 66.6697 132.806 67.1497 132.803 67.7388C132.801 68.0208 132.688 68.2906 132.488 68.4896H132.498Z" fill="#4D5AE5"/>
<defs>
<filter id="filter0_d_302815_4228" x="0" y="0" width="272" height="120" filterUnits="userSpaceOnUse" color-interpolation-filters="sRGB">
<feFlood flood-opacity="0" result="BackgroundImageFix"/>
<feColorMatrix in="SourceAlpha" type="matrix" values="0 0 0 0 0 0 0 0 0 0 0 0 0 0 0 0 0 0 127 0" result="hardAlpha"/>
<feOffset dy="4"/>
<feGaussianBlur stdDeviation="2"/>
<feComposite in2="hardAlpha" operator="out"/>
<feColorMatrix type="matrix" values="0 0 0 0 0 0 0 0 0 0 0 0 0 0 0 0 0 0 0.25 0"/>
<feBlend mode="normal" in2="BackgroundImageFix" result="effect1_dropShadow_302815_4228"/>
<feBlend mode="normal" in="SourceGraphic" in2="effect1_dropShadow_302815_4228" result="shape"/>
</filter>
</defs>
</svg>
