<svg width="48" height="48" viewBox="0 0 48 48" fill="none" xmlns="http://www.w3.org/2000/svg">
<g filter="url(#filter0_d_631500_448)">
<path d="M44 19.9999C44 25.5228 41.7614 30.5228 38.1421 34.1421C34.5228 37.7614 29.5228 39.9999 24 39.9999C18.4772 39.9999 13.4772 37.7614 9.85786 34.1421C6.23858 30.5228 4 25.5228 4 19.9999C4 14.4771 6.23858 9.47709 9.85786 5.8578C13.4772 2.23852 18.4772 -6.10352e-05 24 -6.10352e-05C29.5228 -6.10352e-05 34.5228 2.23852 38.1421 5.8578C41.7614 9.47709 44 14.4771 44 19.9999Z" fill="#4D5AE5"/>
<g clip-path="url(#clip0_631500_448)">
<path d="M32 15.0389C31.405 15.2999 30.771 15.4729 30.11 15.5569C30.79 15.1509 31.309 14.5129 31.553 13.7439C30.919 14.1219 30.219 14.3889 29.473 14.5379C28.871 13.8969 28.013 13.4999 27.077 13.4999C25.261 13.4999 23.799 14.9739 23.799 16.7809C23.799 17.0409 23.821 17.2909 23.875 17.5289C21.148 17.3959 18.735 16.0889 17.114 14.0979C16.831 14.5889 16.665 15.1509 16.665 15.7559C16.665 16.8919 17.25 17.8989 18.122 18.4819C17.595 18.4719 17.078 18.3189 16.64 18.0779C16.64 18.0879 16.64 18.1009 16.64 18.1139C16.64 19.7079 17.777 21.0319 19.268 21.3369C19.001 21.4099 18.71 21.4449 18.408 21.4449C18.198 21.4449 17.986 21.4329 17.787 21.3889C18.212 22.6879 19.418 23.6429 20.852 23.6739C19.736 24.5469 18.319 25.0729 16.785 25.0729C16.516 25.0729 16.258 25.0609 16 25.0279C17.453 25.9649 19.175 26.4999 21.032 26.4999C27.068 26.4999 30.368 21.4999 30.368 17.1659C30.368 17.0209 30.363 16.8809 30.356 16.7419C31.007 16.2799 31.554 15.7029 32 15.0389Z" fill="#F4F4FD"/>
</g>
</g>
<defs>
<filter id="filter0_d_631500_448" x="0" y="-6.10352e-05" width="48" height="48.0001" filterUnits="userSpaceOnUse" color-interpolation-filters="sRGB">
<feFlood flood-opacity="0" result="BackgroundImageFix"/>
<feColorMatrix in="SourceAlpha" type="matrix" values="0 0 0 0 0 0 0 0 0 0 0 0 0 0 0 0 0 0 127 0" result="hardAlpha"/>
<feOffset dy="4"/>
<feGaussianBlur stdDeviation="2"/>
<feComposite in2="hardAlpha" operator="out"/>
<feColorMatrix type="matrix" values="0 0 0 0 0 0 0 0 0 0 0 0 0 0 0 0 0 0 0.25 0"/>
<feBlend mode="normal" in2="BackgroundImageFix" result="effect1_dropShadow_631500_448"/>
<feBlend mode="normal" in="SourceGraphic" in2="effect1_dropShadow_631500_448" result="shape"/>
</filter>
<clipPath id="clip0_631500_448">
<rect width="16" height="16" fill="white" transform="translate(16 11.9999)"/>
</clipPath>
</defs>
</svg>
